<?xml version="1.0" encoding="UTF-8"?>
<!DOCTYPE svg PUBLIC "-//W3C//DTD SVG 1.1//EN" "http://www.w3.org/Graphics/SVG/1.1/DTD/svg11.dtd">
<!-- Creator: CorelDRAW -->
<svg xmlns="http://www.w3.org/2000/svg" xml:space="preserve" width="39.3226mm" height="40.2227mm" version="1.1" style="shape-rendering:geometricPrecision; text-rendering:geometricPrecision; image-rendering:optimizeQuality; fill-rule:evenodd; clip-rule:evenodd"
viewBox="0 0 53.63 54.86"
 xmlns:xlink="http://www.w3.org/1999/xlink"
 xmlns:xodm="http://www.corel.com/coreldraw/odm/2003">
 <defs>
  <style type="text/css">
   <![CDATA[
    .fil0 {fill:white}
   ]]>
  </style>
 </defs>
 <g id="Layer_x0020_1">
  <metadata id="CorelCorpID_0Corel-Layer"/>
  <path class="fil0" d="M42.49 10.51l-0.1 2 -0.19 6.47 -21.16 0.02c-0.33,-3.46 0.62,-11.49 1.82,-15.38 0.24,-0.79 0.49,-1.62 0.69,-2.36 -0.29,-0.03 -2.46,0.34 -2.86,0.77 -0.47,-0.14 -2.37,1.1 -2.67,1.32 -1.65,1.2 -2.76,2.73 -3.59,4.58 -0.31,0.7 -1,2.36 -1.05,3.03 -0.4,0.43 -1.4,5.75 -1.23,6.5 -0.06,0.09 -0.02,-0.01 -0.08,0.2l-0.14 1.75c0.01,0.01 -0.07,0.25 -0.09,0.39 -0.22,2.6 0.22,8.04 0.69,10.5l0.63 2.98c0.08,0.19 0.03,0.1 0.13,0.21 0,0 -0.08,0.4 0.22,0.76l0.6 2.29 0.21 0.35c-0.02,0.28 0.39,1.5 0.64,1.76 0.01,0.54 1.39,3.21 1.76,3.88 1.29,2.34 3.05,4.55 5.28,6.1 0.36,0.25 3.61,2.37 3.7,0.9 0.02,-0.31 -0.75,-1.63 -0.92,-2 -2.82,-6.11 -3.65,-14.16 -3.81,-20.95l21.26 0.24c0.11,0.63 0.03,15.16 0.03,16.54 0,2.05 -0.16,3.28 1.01,4.49 1.2,1.24 2.31,1.09 4.42,1.09 1.98,0 3.34,0.24 4.61,-0.89 1.27,-1.13 1.22,-2.19 1.22,-4.29l0 -27.63c0,-5.1 0.83,-10.61 -2.58,-13.98 -0.58,-0.57 -2.53,-2.02 -3.66,-1.92 -0.45,-0.41 -3.78,-0.43 -5.71,1.52 -0.22,0.22 -1.04,1.05 -1.03,1.43 1.58,0 1.66,1.19 1.85,2.7 0.17,1.38 0.07,3.19 0.08,4.65zm-34.27 30.67l0.67 1.3c0.01,0.24 0.77,1.66 1.09,1.89 0.09,0.66 2.7,3.69 3.07,4.08 1.28,1.33 2.01,1.88 3.47,2.86 0.27,0.18 0.37,0.21 0.33,0.6 -1.71,0.14 -4.93,-2.3 -6.2,-3.63l-2.85 -3.49 -1.48 -2.54c-1.42,-3.13 -1.78,-3.37 -2.87,-6.78l-0.4 -1.09c0.01,-0.34 -0.41,-1.92 -0.6,-2.19 -0.68,0.04 -1.16,1.06 -1.46,1.68 -0.25,0.51 -0.82,1.8 -0.75,2.43l-0.13 0.31c-0.39,1.69 0.21,3.84 0.73,5.39 0.18,0.55 1.83,3.87 2.41,4.29 0.07,0.35 1.38,1.97 1.65,2.1 0.12,0.33 0.47,0.58 0.8,0.92 0.36,0.38 0.58,0.65 1,0.85 0.11,0.41 2.68,2.01 3.44,2.4 2.83,1.44 6.36,2.34 9.7,2.29 1.5,-0.03 3.91,-0.57 4.56,-1.49 0.21,-0.3 0.22,-0.86 -0.04,-1.07 -0.3,-0.25 -2.79,-0.15 -6.79,-3.7 -3.71,-3.29 -6.05,-9.42 -7.28,-13.72l-0.93 -3.68c-0.28,-1.12 -0.38,-2.29 -0.54,-3.41l-0.15 -0.51c0.06,-0.43 -0.14,-2.54 -0.18,-3.16l0.14 -6.62c0.09,-1.77 0.56,-3.95 1.24,-5.56 0.2,-0.48 0.62,-1.16 0.73,-1.53 -0.68,0.31 -2,1.61 -2.46,2.12 -2.94,3.28 -3.52,5.76 -3.9,10.34 -0.35,1.6 0.28,6.16 0.59,8.05 0.4,2.37 0.86,4.05 1.76,6.55l0.32 0.68c0.02,0.28 0.95,2.74 1.32,3.05zm25.31 -22.06l0 0z"/>
 </g>
</svg>
