<?xml version="1.0" encoding="UTF-8"?>
<!DOCTYPE svg PUBLIC "-//W3C//DTD SVG 1.1//EN" "http://www.w3.org/Graphics/SVG/1.1/DTD/svg11.dtd">
<!-- Creator: CorelDRAW -->
<svg xmlns="http://www.w3.org/2000/svg" xml:space="preserve" width="40.8978mm" height="32.6803mm" version="1.1" style="shape-rendering:geometricPrecision; text-rendering:geometricPrecision; image-rendering:optimizeQuality; fill-rule:evenodd; clip-rule:evenodd"
viewBox="0 0 411.82 329.07"
 xmlns:xlink="http://www.w3.org/1999/xlink"
 xmlns:xodm="http://www.corel.com/coreldraw/odm/2003">
 <defs>
  <style type="text/css">
   <![CDATA[
    .fil0 {fill:white}
    .fil1 {fill:white;fill-rule:nonzero}
   ]]>
  </style>
 </defs>
 <g id="Layer_x0020_1">
  <metadata id="CorelCorpID_0Corel-Layer"/>
  <g id="_2679458258480">
   <g>
    <g>
     <g>
      <path class="fil0" d="M68.34 51.31c-13.1,0 -22.93,-6.55 -32.75,-19.65l-20.74 -31.66c67.69,0 136.48,0 204.17,0 7.64,0 13.1,3.28 17.47,8.73 4.37,5.46 5.46,13.1 3.28,19.65l-6.55 22.93c-53.5,0 -109.18,0 -164.86,0l0 0zm272.95 129.93l-18.56 0c-7.64,0 -13.1,-3.28 -17.47,-8.73 -4.37,-5.46 -5.46,-13.1 -3.28,-19.65l10.92 -37.12 -94.99 0 -14.19 49.13c-3.27,9.83 -10.92,16.38 -21.84,16.38l-36.03 0 18.56 -65.51 -22.93 0c-13.1,0 -22.93,-6.55 -32.75,-19.65l-20.74 -29.48c78.61,0 158.31,0 236.92,0l0 -1.09 14.19 -49.13c3.27,-9.83 10.92,-16.38 21.84,-16.38l36.03 0c-17.47,60.05 -34.94,121.19 -51.31,181.24l-4.37 0z"/>
     </g>
    </g>
   </g>
   <g>
    <path class="fil1" d="M68.28 259.45l7.32 -41.27c0.16,-1.56 1.25,-2.49 2.8,-2.49l19.31 0c1.71,0 2.65,1.25 2.49,2.96l-18.85 105.91c-0.16,1.56 -1.09,2.49 -2.8,2.49l-19.31 0c-1.71,0 -2.65,-1.25 -2.34,-2.96l7.48 -42.05 -32.24 0 -7.48 42.52c-0.31,1.56 -1.25,2.49 -2.96,2.49l-19.16 0c-1.87,0 -2.8,-1.25 -2.49,-2.96l18.69 -105.91c0.31,-1.56 1.25,-2.49 2.8,-2.49l19.31 0c1.87,0 2.65,1.25 2.49,2.96l-7.17 40.81 32.09 0z"/>
    <path class="fil1" d="M121.39 327.05l-18.07 0c-1.71,0 -2.65,-1.25 -2.34,-2.96l13.39 -75.7c0.16,-1.56 1.25,-2.34 2.8,-2.34l18.07 0c1.87,0 2.8,1.09 2.49,2.8l-13.39 75.7c-0.31,1.56 -1.25,2.49 -2.96,2.49zm21.49 -103.58c-1.25,6.39 -6.7,11.21 -13.71,11.21 -7.94,0 -12.93,-6.39 -11.37,-14.48 1.25,-6.85 6.54,-11.37 13.71,-11.37 7.94,0 12.93,6.23 11.37,14.64z"/>
    <path class="fil1" d="M200.98 322.37c-8.41,4.67 -17.44,6.7 -26.79,6.7 -21.03,0 -33.8,-14.02 -29.9,-36.14l3.43 -19.31c3.43,-19.63 19,-29.75 38.78,-29.75 9.81,0 17.44,2.96 23.68,7.48 1.25,0.93 1.4,2.34 0.47,3.74l-9.19 11.84c-1.09,1.25 -2.18,1.4 -3.74,0.47 -3.43,-2.02 -7.63,-3.27 -11.99,-3.27 -8.25,0 -13.24,4.36 -14.64,11.99l-3.27 18.38c-1.87,9.5 2.34,14.33 9.97,14.33 4.36,0 9.66,-1.56 14.64,-4.52 1.56,-0.93 2.96,-0.62 3.74,0.93l6.07 13.39c0.78,1.56 0.47,2.8 -1.25,3.74l0 0z"/>
    <path class="fil1" d="M284.78 298.23c-3.58,19.62 -17.76,30.84 -40.65,30.84 -20.87,0 -33.49,-15.58 -29.91,-35.36l3.27 -19.31c3.43,-18.85 18.69,-30.53 40.34,-30.53 21.34,0 33.8,15.73 30.53,34.73l-3.58 19.63zm-47.19 -2.18c-1.4,7.63 1.87,12.62 9.19,12.62 8.1,0 13.08,-4.36 14.33,-11.68l3.58 -19.94c1.25,-7.01 -2.02,-12.77 -9.5,-12.77 -7.48,0 -12.77,4.67 -14.02,11.68l-3.58 20.09z"/>
    <path class="fil1" d="M359.38 250.11c7.32,-3.89 15.26,-6.23 23.05,-6.23 21.49,0 32.4,15.89 28.66,38l-7.79 42.68c-0.16,1.56 -1.25,2.49 -2.8,2.49l-17.6 0c-1.87,0 -2.65,-1.25 -2.49,-2.96l7.94 -45.48c1.71,-9.97 -1.87,-14.33 -9.35,-14.33 -3.74,0 -7.63,1.25 -10.43,2.8 0.78,4.36 0.78,9.5 -0.16,14.8l-7.63 42.68c-0.16,1.56 -1.25,2.49 -2.8,2.49l-17.6 0c-1.87,0 -2.8,-1.25 -2.49,-2.96l7.94 -45.48c1.71,-9.97 -1.56,-14.33 -8.57,-14.33 -3.43,0 -6.85,0.78 -9.03,1.87l-10.59 58.41c-0.31,1.71 -1.25,2.49 -2.8,2.49l-17.91 0c-1.71,0 -2.65,-1.09 -2.34,-2.96l12.93 -71.18c0.31,-1.25 0.93,-2.18 2.34,-2.8 9.19,-3.89 20.56,-6.23 30.22,-6.23 7.79,0 14.48,2.34 19.31,6.23z"/>
   </g>
  </g>
 </g>
</svg>
