<svg width="24" height="20" viewBox="0 0 24 20" fill="none" xmlns="http://www.w3.org/2000/svg">
<path d="M18.9258 16.0244C19.9113 14.9659 19.1611 13.2413 17.7148 13.2412L6.47852 13.2412C5.00406 13.2414 4.26595 15.0238 5.30859 16.0664L5.37988 16.1377H3.31055C1.48229 16.1377 0 14.6554 0 12.8271L0 3.31055C0 1.48229 1.48229 0 3.31055 0L20.6895 0C22.5177 0 24 1.48229 24 3.31055L24 12.8271C24 14.6554 22.5177 16.1377 20.6895 16.1377H18.8203L18.9258 16.0244ZM18.4141 6.62012C18.9853 6.61997 19.4482 6.15718 19.4482 5.58594V4.34473C19.4482 3.77349 18.9853 3.31069 18.4141 3.31055C17.8427 3.31055 17.3789 3.7734 17.3789 4.34473V5.58594C17.3789 6.15727 17.8427 6.62012 18.4141 6.62012ZM14.2754 6.62012C14.8467 6.62012 15.3105 6.15727 15.3105 5.58594V4.34473C15.3105 3.7734 14.8467 3.31055 14.2754 3.31055C13.7043 3.3108 13.2412 3.77355 13.2412 4.34473V5.58594C13.2412 6.15711 13.7043 6.61986 14.2754 6.62012ZM10.1377 6.62012C10.709 6.62012 11.1729 6.15727 11.1729 5.58594V4.34473C11.1729 3.7734 10.709 3.31055 10.1377 3.31055C9.56647 3.31067 9.10352 3.77348 9.10352 4.34473V5.58594C9.10352 6.15719 9.56647 6.61999 10.1377 6.62012ZM5.58594 6.62012C6.15727 6.62012 6.62109 6.15727 6.62109 5.58594L6.62109 4.34473C6.62109 3.7734 6.15727 3.31055 5.58594 3.31055C5.01473 3.31069 4.55176 3.77349 4.55176 4.34473L4.55176 5.58594C4.55176 6.15718 5.01473 6.61997 5.58594 6.62012ZM9.16797 19.2412C8.72914 19.2411 8.30835 19.0662 7.99805 18.7559L5.37988 16.1377L18.8203 16.1377L16.4219 18.7139C16.1089 19.05 15.6702 19.2411 15.2109 19.2412L9.16797 19.2412Z" fill="black"/>
<path d="M18.8276 16.1377L5.37935 16.1377L2.48283 13.0342L21.1035 13.0342L18.8276 16.1377Z" fill="black"/>
</svg>
