<svg width="24" height="20" viewBox="0 0 24 20" fill="none" xmlns="http://www.w3.org/2000/svg">
<path d="M5.07422 3.2168C4.08872 4.2753 4.83893 5.99994 6.28516 6H17.5215C18.9959 5.99982 19.7341 4.21745 18.6914 3.1748L18.6201 3.10352H20.6895C22.5177 3.10352 24 4.58581 24 6.41406V15.9307C24 17.7589 22.5177 19.2412 20.6895 19.2412H3.31055C1.48229 19.2412 0 17.7589 0 15.9307V6.41406C0 4.58581 1.48229 3.10352 3.31055 3.10352H5.17969L5.07422 3.2168ZM5.58594 12.6211C5.01473 12.6212 4.55176 13.084 4.55176 13.6553V14.8965C4.55176 15.4677 5.01473 15.9305 5.58594 15.9307C6.15727 15.9307 6.62109 15.4678 6.62109 14.8965V13.6553C6.62109 13.0839 6.15727 12.6211 5.58594 12.6211ZM9.72461 12.6211C9.15328 12.6211 8.68945 13.0839 8.68945 13.6553V14.8965C8.68945 15.4678 9.15328 15.9307 9.72461 15.9307C10.2957 15.9304 10.7588 15.4677 10.7588 14.8965V13.6553C10.7588 13.0841 10.2957 12.6213 9.72461 12.6211ZM13.8623 12.6211C13.291 12.6211 12.8271 13.0839 12.8271 13.6553V14.8965C12.8271 15.4678 13.291 15.9307 13.8623 15.9307C14.4335 15.9305 14.8965 15.4677 14.8965 14.8965V13.6553C14.8965 13.084 14.4335 12.6212 13.8623 12.6211ZM18.4141 12.6211C17.8427 12.6211 17.3789 13.0839 17.3789 13.6553V14.8965C17.3789 15.4678 17.8427 15.9307 18.4141 15.9307C18.9853 15.9305 19.4482 15.4677 19.4482 14.8965V13.6553C19.4482 13.084 18.9853 12.6212 18.4141 12.6211ZM14.832 0C15.2709 0.000111899 15.6916 0.175046 16.002 0.485352L18.6201 3.10352H5.17969L7.57812 0.527344C7.89115 0.191214 8.32976 9.27755e-05 8.78906 0H14.832Z" fill="black"/>
<path d="M5.17237 3.10352H18.6207L21.5172 6.20696H2.89648L5.17237 3.10352Z" fill="black"/>
</svg>
