<?xml version="1.0" encoding="UTF-8"?>
<!DOCTYPE svg PUBLIC "-//W3C//DTD SVG 1.1//EN" "http://www.w3.org/Graphics/SVG/1.1/DTD/svg11.dtd">
<!-- Creator: CorelDRAW -->
<svg xmlns="http://www.w3.org/2000/svg" xml:space="preserve" width="29.7167mm" height="40.2231mm" version="1.1" style="shape-rendering:geometricPrecision; text-rendering:geometricPrecision; image-rendering:optimizeQuality; fill-rule:evenodd; clip-rule:evenodd"
viewBox="0 0 28.87 39.08"
 xmlns:xlink="http://www.w3.org/1999/xlink"
 xmlns:xodm="http://www.corel.com/coreldraw/odm/2003">
 <defs>
  <style type="text/css">
   <![CDATA[
    .fil0 {fill:white}
   ]]>
  </style>
 </defs>
 <g id="Layer_x0020_1">
  <metadata id="CorelCorpID_0Corel-Layer"/>
  <g id="_2324522398784">
   <path class="fil0" d="M27.08 14.29l-9.28 0c-0,1.07 0.03,2.88 -0.04,3.87 -0.09,1.32 -0.44,2.73 -1.18,3.69 -0.45,0.58 -1.01,0.97 -1.72,1.22 -1.03,0.37 -2.37,0.24 -3.22,-0.26 -0.88,-0.51 -1.39,-1.16 -1.78,-2.13 -0.4,-0.99 -0.55,-2.17 -0.56,-3.34 -0.03,-2.6 -0,-5.22 -0,-7.83 0,-2.6 0,-5.21 0,-7.81 0,-0.32 0,-0.65 0,-0.97 -0,-0.32 -0.15,-0.52 -0.35,-0.64 -0.22,-0.13 -0.59,-0.09 -0.88,-0.09 -2.29,0 -4.57,0 -6.86,0 -0.48,0 -1.2,-0.09 -1.2,0.77l0 15.64c0,3.4 0.42,6.65 2.17,9.57 0.24,0.4 0.54,0.81 0.82,1.14 0.18,0.21 0.27,0.32 0.46,0.51l0.5 0.49c0.05,0.04 0.08,0.06 0.13,0.11 0.04,0.03 0.08,0.07 0.13,0.11 0.29,0.24 0.53,0.4 0.85,0.62 2,1.35 5,2.07 7.59,2.19 3.42,0.16 7.34,-0.61 10.01,-2.65l0.54 -0.45c0.09,-0.09 0.16,-0.13 0.25,-0.23 0.1,-0.12 0.19,-0.18 0.25,-0.25 0.15,-0.17 0.31,-0.34 0.46,-0.53 1.3,-1.65 1.95,-3.29 2.43,-5.4 0.54,-2.38 0.49,-4.85 0.49,-7.35z"/>
   <path class="fil0" d="M17.8 12.48l9.29 0 -0.01 -5.21c-4.04,-0.02 -7.26,-3.23 -7.27,-7.27 -0.3,0 -0.6,0 -0.9,0 -0.29,0 -0.58,-0.03 -0.79,0.12 -0.16,0.11 -0.31,0.29 -0.32,0.57 -0.01,0.29 -0,0.61 -0,0.91l0 9.05c0,0.58 -0.03,1.26 0,1.82z"/>
   <path class="fil0" d="M27.08 5.47l0 -4.08c0,-0.46 0.07,-0.9 -0.21,-1.17 -0.27,-0.27 -0.7,-0.21 -1.15,-0.21l-4.1 0c0.01,1.23 0.34,2.16 0.97,3.11 0.32,0.48 0.88,1.05 1.37,1.37 0.96,0.63 1.88,0.97 3.12,0.98z"/>
   <path class="fil0" d="M19.96 35.43c0.19,-0.02 0.5,-0.01 0.7,-0.01 0.22,0 0.41,0.06 0.5,0.19 0.15,0.22 0.15,0.74 -0.48,0.74l-0.72 -0.01 -0 -0.92zm1.29 1.47c0.93,-0.18 1.05,-1.72 0.03,-2.05 -0.35,-0.11 -1.63,-0.07 -2.05,-0.07l-0 3.44 0.73 0 0.01 -1.22 0.52 -0c0.06,0.06 0.24,0.41 0.3,0.52 0.1,0.18 0.2,0.35 0.29,0.53l0.59 1.04 0.83 -0 -1.25 -2.17z"/>
   <path class="fil0" d="M24.64 37.57l-0 -2.13c0.11,-0.02 0.54,-0.01 0.68,-0.01 0.21,0.01 0.4,0.06 0.55,0.15 0.74,0.43 0.64,1.93 -0.54,1.99 -0.16,0.01 -0.55,0.02 -0.69,-0zm-0.74 0.65c0.4,0.01 0.81,0 1.21,0 0.38,0 0.73,-0.03 1.04,-0.19 1.35,-0.67 1.15,-2.54 0.01,-3.06 -0.58,-0.27 -1.55,-0.2 -2.25,-0.19l-0.01 3.44z"/>
   <path class="fil0" d="M15.97 35.54l0.52 1.46 -1.07 -0.01 0.54 -1.45zm-0.99 2.68c0.05,-0.02 0.02,0.03 0.08,-0.13 0.02,-0.05 0.04,-0.1 0.06,-0.15 0.04,-0.1 0.08,-0.2 0.11,-0.3l1.48 0 0.21 0.58 0.84 -0 -0.66 -1.73c-0.11,-0.29 -0.23,-0.58 -0.34,-0.87 -0.03,-0.07 -0.28,-0.82 -0.35,-0.83l-0.89 0 -1.33 3.44 0.8 0z"/>
   <path class="fil0" d="M0.03 37c-0.02,0.41 0.25,0.8 0.44,0.96 0.27,0.22 0.62,0.33 1.07,0.33 0.61,0 1.14,-0.19 1.41,-0.7 0.07,-0.14 0.16,-0.37 0.14,-0.55l0.01 -2.24 -0.73 0c0,0.29 0.04,2.01 -0.02,2.13 -0.01,0.45 -0.34,0.71 -0.8,0.71 -0.44,0 -0.81,-0.28 -0.8,-0.72 -0.05,-0.11 -0.02,-1.85 -0.02,-2.13l-0.72 0 0 2.21z"/>
   <path class="fil0" d="M6 37.58c0.04,-0.08 0.33,-0.46 0.4,-0.57 0.14,-0.19 0.27,-0.37 0.41,-0.56 0.07,-0.09 0.8,-1.03 0.8,-1.14l-0.01 -0.53 -2.58 0 -0 0.64 1.62 0 -1.4 1.91c-0.29,0.4 -0.22,0.21 -0.22,0.88 0.78,0.02 1.81,0 2.62,0l0.01 -0.64 -1.66 -0z"/>
   <path class="fil0" d="M12.68 37.44l-0.63 -0.3c-0.37,0.83 -1.88,0.62 -1.88,-0.63 -0,-1.2 1.45,-1.49 1.88,-0.63l0.63 -0.31c-0.33,-0.6 -1.04,-1.03 -2.01,-0.76 -1.65,0.46 -1.7,2.87 -0.03,3.39 0.4,0.13 0.89,0.12 1.27,-0.04 0.31,-0.14 0.63,-0.43 0.77,-0.72z"/>
   <path class="fil0" d="M28.87 33.85c-0.42,0 -0.83,-0.07 -1.09,0.18 -0.26,0.26 -0.26,0.65 0,0.91 0.25,0.25 0.66,0.23 0.9,0 0.24,-0.23 0.19,-0.7 0.19,-1.1z"/>
   <path class="fil0" d="M0.03 37l-0 -2.21 0.72 0c0,0.28 -0.03,2.02 0.02,2.13l-0 -2.13c-0.1,-0.03 -0.67,-0.03 -0.76,0 -0.02,0.21 -0.02,2.15 0.02,2.21z"/>
   <path class="fil0" d="M2.37 36.92c0.06,-0.12 0.02,-1.84 0.02,-2.13l0.73 0 -0.01 2.24c0.04,-0.05 0.05,-2.05 0.02,-2.25l-0.75 -0.01 -0.01 2.15z"/>
  </g>
 </g>
</svg>
